<?xml version="1.0" encoding="UTF-8"?>
<svg width="408px" height="308px" viewBox="0 0 408 308" version="1.1" xmlns="http://www.w3.org/2000/svg" xmlns:xlink="http://www.w3.org/1999/xlink">
    <!-- Generator: Sketch 41 (35326) - http://www.bohemiancoding.com/sketch -->
    <title>demo1</title>
    <desc>Created with Sketch.</desc>
    <defs>
        <rect id="path-1" x="121" y="78" width="400" height="300"></rect>
        <filter x="-50%" y="-50%" width="200%" height="200%" filterUnits="objectBoundingBox" id="filter-2">
            <feOffset dx="8" dy="8" in="SourceAlpha" result="shadowOffsetOuter1"></feOffset>
            <feComposite in="shadowOffsetOuter1" in2="SourceAlpha" operator="out" result="shadowOffsetOuter1"></feComposite>
            <feColorMatrix values="0 0 0 0 0   0 0 0 0 0.0745098039   0 0 0 0 1  0 0 0 0.1 0" type="matrix" in="shadowOffsetOuter1"></feColorMatrix>
        </filter>
        <mask id="mask-3" maskContentUnits="userSpaceOnUse" maskUnits="objectBoundingBox" x="0" y="0" width="400" height="300" fill="white">
            <use xlink:href="#path-1"></use>
        </mask>
    </defs>
    <g id="Demos" stroke="none" stroke-width="1" fill="none" fill-rule="evenodd">
        <g id="Demo-1" transform="translate(-121.000000, -78.000000)">
            <g id="Terminal">
                <use fill="black" fill-opacity="1" filter="url(#filter-2)" xlink:href="#path-1"></use>
                <use stroke="#0013FF" mask="url(#mask-3)" stroke-width="6" fill="#FFFFFF" fill-rule="evenodd" xlink:href="#path-1"></use>
            </g>
            <g id="Seperators" transform="translate(123.000000, 129.000000)" stroke="#0013FF" stroke-width="3" stroke-linecap="square">
                <path d="M0.5,1.5 L395.545567,1.5" id="Line"></path>
            </g>
            <g id="Command-2" transform="translate(139.000000, 270.000000)" fill="#0013FF">
                <path d="M25.94,14.216 C25.2679966,14.216 24.6440029,14.114001 24.068,13.91 C23.4919971,13.705999 22.9880022,13.406002 22.556,13.01 C22.1239978,12.613998 21.7850012,12.1280029 21.539,11.552 C21.2929988,10.9759971 21.17,10.3220037 21.17,9.59 C21.17,8.8699964 21.2959987,8.22500285 21.548,7.655 C21.8000013,7.08499715 22.1329979,6.60200198 22.547,6.206 C22.9610021,5.80999802 23.4379973,5.50700105 23.978,5.297 C24.5180027,5.08699895 25.0819971,4.982 25.67,4.982 C26.3180032,4.982 26.8939975,5.08399898 27.398,5.288 C27.9020025,5.49200102 28.3249983,5.77699817 28.667,6.143 C29.0090017,6.50900183 29.2699991,6.94699745 29.45,7.457 C29.6300009,7.96700255 29.72,8.52799694 29.72,9.14 C29.72,9.33200096 29.7140001,9.51199916 29.702,9.68 C29.6899999,9.84800084 29.6720001,9.9919994 29.648,10.112 L22.952,10.112 C23.0480005,11.0240046 23.392997,11.7019978 23.987,12.146 C24.581003,12.5900022 25.3099957,12.812 26.174,12.812 C26.6660025,12.812 27.115998,12.7430007 27.524,12.605 C27.932002,12.4669993 28.333998,12.2780012 28.73,12.038 L29.36,13.172 C28.9039977,13.4720015 28.3910029,13.720999 27.821,13.919 C27.2509972,14.117001 26.6240034,14.216 25.94,14.216 Z M25.724,6.386 C25.3879983,6.386 25.0700015,6.43699949 24.77,6.539 C24.4699985,6.64100051 24.2000012,6.79399898 23.96,6.998 C23.7199988,7.20200102 23.5160008,7.4539985 23.348,7.754 C23.1799992,8.0540015 23.0600004,8.40199802 22.988,8.798 L28.118,8.798 C28.0579997,7.99399598 27.8150021,7.39100201 27.389,6.989 C26.9629979,6.58699799 26.4080034,6.386 25.724,6.386 Z M36.47,14.216 C35.7859966,14.216 35.147003,14.114001 34.553,13.91 C33.9589971,13.705999 33.4460022,13.406002 33.014,13.01 C32.5819979,12.613998 32.2430013,12.1310029 31.997,11.561 C31.7509988,10.9909972 31.628,10.3400037 31.628,9.608 C31.628,8.87599634 31.7599987,8.22200288 32.024,7.646 C32.2880014,7.06999712 32.6479978,6.58400198 33.104,6.188 C33.5600023,5.79199802 34.0849971,5.49200102 34.679,5.288 C35.273003,5.08399898 35.9059967,4.982 36.578,4.982 C37.2980036,4.982 37.9279973,5.10499877 38.468,5.351 C39.0080027,5.59700123 39.4579982,5.89399826 39.818,6.242 L38.954,7.376 C38.6059983,7.08799856 38.2460019,6.86300081 37.874,6.701 C37.5019982,6.53899919 37.1000022,6.458 36.668,6.458 C36.1999977,6.458 35.768002,6.53299925 35.372,6.683 C34.9759981,6.83300075 34.6370014,7.04599862 34.355,7.322 C34.0729986,7.59800138 33.8540008,7.93099805 33.698,8.321 C33.5419993,8.71100195 33.464,9.13999766 33.464,9.608 C33.464,10.0760023 33.5389993,10.504998 33.689,10.895 C33.8390008,11.2850019 34.0549986,11.6179986 34.337,11.894 C34.6190014,12.1700014 34.9519981,12.3829992 35.336,12.533 C35.720002,12.6830007 36.1459977,12.758 36.614,12.758 C37.1540027,12.758 37.6369979,12.656001 38.063,12.452 C38.4890022,12.247999 38.8759983,12.0020014 39.224,11.714 L39.998,12.866 C39.4939975,13.2980022 38.942003,13.6309988 38.342,13.865 C37.741997,14.0990012 37.1180033,14.216 36.47,14.216 Z M42.1040001,14 L42.1040001,1.238 L43.8860001,1.238 L43.8860001,4.622 L43.7780001,6.602 L43.8320001,6.602 C44.2520022,6.14599772 44.7169975,5.76200156 45.2270001,5.45 C45.7370026,5.13799844 46.3339967,4.982 47.0180001,4.982 C48.0500052,4.982 48.8059977,5.28799694 49.2860001,5.9 C49.7660025,6.51200306 50.0060001,7.39399424 50.0060001,8.546 L50.0060001,14 L48.2240001,14 L48.2240001,8.78 C48.2240001,8.01199616 48.0860015,7.44500183 47.8100001,7.079 C47.5339987,6.71299817 47.0600034,6.53 46.3880001,6.53 C45.9199977,6.53 45.5000019,6.64699883 45.1280001,6.881 C44.7559982,7.11500117 44.3420024,7.46599766 43.8860001,7.934 L43.8860001,14 L42.1040001,14 Z M56.1800001,14.216 C55.6039972,14.216 55.0520028,14.114001 54.5240001,13.91 C53.9959975,13.705999 53.5280022,13.406002 53.1200001,13.01 C52.7119981,12.613998 52.3880013,12.1310029 52.1480001,11.561 C51.9079989,10.9909972 51.7880001,10.3400037 51.7880001,9.608 C51.7880001,8.87599634 51.9079989,8.22200288 52.1480001,7.646 C52.3880013,7.06999712 52.7119981,6.58400198 53.1200001,6.188 C53.5280022,5.79199802 53.9959975,5.49200102 54.5240001,5.288 C55.0520028,5.08399898 55.6039972,4.982 56.1800001,4.982 C56.756003,4.982 57.3079975,5.08399898 57.8360001,5.288 C58.3640028,5.49200102 58.8319981,5.79199802 59.2400001,6.188 C59.6480022,6.58400198 59.9719989,7.06999712 60.2120001,7.646 C60.4520013,8.22200288 60.5720001,8.87599634 60.5720001,9.608 C60.5720001,10.3400037 60.4520013,10.9909972 60.2120001,11.561 C59.9719989,12.1310029 59.6480022,12.613998 59.2400001,13.01 C58.8319981,13.406002 58.3640028,13.705999 57.8360001,13.91 C57.3079975,14.114001 56.756003,14.216 56.1800001,14.216 Z M56.1800001,12.758 C56.9720041,12.758 57.5959978,12.4700029 58.0520001,11.894 C58.5080024,11.3179971 58.7360001,10.5560047 58.7360001,9.608 C58.7360001,8.65999526 58.5080024,7.89800288 58.0520001,7.322 C57.5959978,6.74599712 56.9720041,6.458 56.1800001,6.458 C55.3879962,6.458 54.7640024,6.74599712 54.3080001,7.322 C53.8519978,7.89800288 53.6240001,8.65999526 53.6240001,9.608 C53.6240001,10.5560047 53.8519978,11.3179971 54.3080001,11.894 C54.7640024,12.4700029 55.3879962,12.758 56.1800001,12.758 Z M76.1240002,7.88 L75.6200002,3.776 L75.5660002,1.652 L77.8340002,1.652 L77.7800002,3.776 L77.2760002,7.88 L76.1240002,7.88 Z M83.4500002,14 L81.7220002,2.192 L83.6840002,2.192 L84.4040002,9.32 C84.4520005,9.81200246 84.4910001,10.255998 84.5210002,10.652 C84.5510004,11.048002 84.5780001,11.5279972 84.6020002,12.092 L84.6560002,12.092 C84.7520007,11.5279972 84.8449998,11.048002 84.9350002,10.652 C85.0250007,10.255998 85.1239997,9.81200246 85.2320002,9.32 L86.2940002,5.216 L87.8060002,5.216 L88.8140002,9.32 C88.8740005,9.5600012 88.928,9.78799892 88.9760002,10.004 C89.0240005,10.2200011 89.069,10.4359989 89.1110002,10.652 C89.1530004,10.8680011 89.198,11.0899989 89.2460002,11.318 C89.2940005,11.5460011 89.342,11.8039986 89.3900002,12.092 L89.4620002,12.092 C89.4740003,11.8039986 89.4860002,11.5460011 89.4980002,11.318 C89.5100003,11.0899989 89.5220002,10.8680011 89.5340002,10.652 C89.5460003,10.4359989 89.5610001,10.2200011 89.5790002,10.004 C89.5970003,9.78799892 89.6180001,9.5600012 89.6420002,9.32 L90.3440002,2.192 L92.2160002,2.192 L90.5600002,14 L88.4360002,14 L87.3920002,9.536 C87.3079998,9.1759982 87.2330006,8.8160018 87.1670002,8.456 C87.1009999,8.0959982 87.0440005,7.7360018 86.9960002,7.376 L86.9420002,7.376 C86.8819999,7.7360018 86.8250005,8.0959982 86.7710002,8.456 C86.717,8.8160018 86.6420007,9.1759982 86.5460002,9.536 L85.5200002,14 L83.4500002,14 Z M97.2200003,14.216 C96.6439974,14.216 96.0920029,14.114001 95.5640003,13.91 C95.0359976,13.705999 94.5680023,13.406002 94.1600003,13.01 C93.7519982,12.613998 93.4280015,12.1310029 93.1880003,11.561 C92.9479991,10.9909972 92.8280003,10.3400037 92.8280003,9.608 C92.8280003,8.87599634 92.9479991,8.22200288 93.1880003,7.646 C93.4280015,7.06999712 93.7519982,6.58400198 94.1600003,6.188 C94.5680023,5.79199802 95.0359976,5.49200102 95.5640003,5.288 C96.0920029,5.08399898 96.6439974,4.982 97.2200003,4.982 C97.7960031,4.982 98.3479976,5.08399898 98.8760003,5.288 C99.4040029,5.49200102 99.8719982,5.79199802 100.28,6.188 C100.688002,6.58400198 101.011999,7.06999712 101.252,7.646 C101.492001,8.22200288 101.612,8.87599634 101.612,9.608 C101.612,10.3400037 101.492001,10.9909972 101.252,11.561 C101.011999,12.1310029 100.688002,12.613998 100.28,13.01 C99.8719982,13.406002 99.4040029,13.705999 98.8760003,13.91 C98.3479976,14.114001 97.7960031,14.216 97.2200003,14.216 Z M97.2200003,12.758 C98.0120042,12.758 98.635998,12.4700029 99.0920003,11.894 C99.5480025,11.3179971 99.7760003,10.5560047 99.7760003,9.608 C99.7760003,8.65999526 99.5480025,7.89800288 99.0920003,7.322 C98.635998,6.74599712 98.0120042,6.458 97.2200003,6.458 C96.4279963,6.458 95.8040025,6.74599712 95.3480003,7.322 C94.891998,7.89800288 94.6640003,8.65999526 94.6640003,9.608 C94.6640003,10.5560047 94.891998,11.3179971 95.3480003,11.894 C95.8040025,12.4700029 96.4279963,12.758 97.2200003,12.758 Z M104.564,14 L104.564,5.198 L106.04,5.198 L106.184,7.25 L106.238,7.25 C106.694003,6.5299964 107.248997,5.97200198 107.903,5.576 C108.557004,5.17999802 109.279996,4.982 110.072,4.982 C110.420002,4.982 110.725999,5.00899973 110.99,5.063 C111.254002,5.11700027 111.523999,5.20999934 111.8,5.342 L111.404,6.872 C111.103999,6.77599952 110.846001,6.70400024 110.63,6.656 C110.413999,6.60799976 110.138002,6.584 109.802,6.584 C109.165997,6.584 108.554003,6.7639982 107.966,7.124 C107.377997,7.4840018 106.838003,8.10799556 106.346,8.996 L106.346,14 L104.564,14 Z M119.612,14.216 C118.627995,14.216 117.878003,13.9340028 117.362,13.37 C116.845998,12.8059972 116.588,11.9900053 116.588,10.922 L116.588,2.66 L113.708,2.66 L113.708,1.238 L118.37,1.238 L118.37,11.03 C118.37,11.6420031 118.522999,12.0829987 118.829,12.353 C119.135002,12.6230013 119.533998,12.758 120.026,12.758 C120.482003,12.758 121.009997,12.6320013 121.61,12.38 L122.042,13.712 C121.621998,13.8800008 121.235002,14.0059996 120.881,14.09 C120.526999,14.1740004 120.104003,14.216 119.612,14.216 Z M127.406,14.216 C126.829998,14.216 126.311003,14.114001 125.849,13.91 C125.386998,13.705999 124.988002,13.406002 124.652,13.01 C124.315999,12.613998 124.058001,12.1310029 123.878,11.561 C123.697999,10.9909972 123.608,10.3400037 123.608,9.608 C123.608,8.8879964 123.718999,8.24300285 123.941,7.673 C124.163001,7.10299715 124.456999,6.62000198 124.823,6.224 C125.189002,5.82799802 125.608998,5.52200108 126.083,5.306 C126.557003,5.08999892 127.045998,4.982 127.55,4.982 C128.066003,4.982 128.524998,5.07799904 128.927,5.27 C129.329002,5.46200096 129.709999,5.73199826 130.07,6.08 L130.124,6.08 L130.034,4.514 L130.034,1.238 L131.816,1.238 L131.816,14 L130.358,14 L130.214,12.92 L130.16,12.92 C129.811999,13.2680017 129.398003,13.5709987 128.918,13.829 C128.437998,14.0870013 127.934003,14.216 127.406,14.216 Z M127.82,12.74 C128.612004,12.74 129.349997,12.344004 130.034,11.552 L130.034,7.376 C129.685999,7.03999832 129.338002,6.80600066 128.99,6.674 C128.641999,6.54199934 128.294002,6.476 127.946,6.476 C127.597999,6.476 127.274002,6.54799928 126.974,6.692 C126.673999,6.83600072 126.410002,7.04299865 126.182,7.313 C125.953999,7.58300135 125.774001,7.90999808 125.642,8.294 C125.51,8.67800192 125.444,9.1099976 125.444,9.59 C125.444,10.6100051 125.650998,11.3899973 126.065,11.93 C126.479002,12.4700027 127.063997,12.74 127.82,12.74 Z M137.684,7.88 L137.18,3.776 L137.126,1.652 L139.394,1.652 L139.34,3.776 L138.836,7.88 L137.684,7.88 Z" id="echo-“World“"></path>
                <path d="M0.44,11.948 L1.25,10.724 C1.7300024,11.0600017 2.24299727,11.3449988 2.789,11.579 C3.33500273,11.8130012 3.93199676,11.93 4.58,11.93 C5.21600318,11.93 5.69899835,11.8040013 6.029,11.552 C6.35900165,11.2999987 6.524,10.9640021 6.524,10.544 C6.524,10.2079983 6.38600138,9.92600114 6.11,9.698 C5.83399862,9.46999886 5.48900207,9.2660009 5.075,9.086 C4.66099793,8.9059991 4.2140024,8.7260009 3.734,8.546 C3.2539976,8.3659991 2.80700207,8.15300123 2.393,7.907 C1.97899793,7.66099877 1.63400138,7.36400174 1.358,7.016 C1.08199862,6.66799826 0.944,6.23000264 0.944,5.702 C0.944,4.93399616 1.21099733,4.30400246 1.745,3.812 C2.27900267,3.31999754 2.98999556,3.02000054 3.878,2.912 L3.878,0.554 L5.12,0.554 L5.12,2.894 C5.76800324,2.9540003 6.31699775,3.11299871 6.767,3.371 C7.21700225,3.62900129 7.6219982,3.9379982 7.982,4.298 L7.064,5.342 C6.85999898,5.18599922 6.66200096,5.04500063 6.47,4.919 C6.27799904,4.79299937 6.08000102,4.68800042 5.876,4.604 C5.67199898,4.51999958 5.45600114,4.45400024 5.228,4.406 C4.99999886,4.35799976 4.74200144,4.334 4.454,4.334 C3.90199724,4.334 3.46700159,4.45099883 3.149,4.685 C2.83099841,4.91900117 2.672,5.2459979 2.672,5.666 C2.672,5.9660015 2.80999862,6.21499901 3.086,6.413 C3.36200138,6.61100099 3.70699793,6.79399916 4.121,6.962 C4.53500207,7.13000084 4.98499757,7.30099913 5.471,7.475 C5.95700243,7.64900087 6.40699793,7.86199874 6.821,8.114 C7.23500207,8.36600126 7.57999862,8.67499817 7.856,9.041 C8.13200138,9.40700183 8.27,9.86599724 8.27,10.418 C8.27,11.1980039 7.98800282,11.8489974 7.424,12.371 C6.85999718,12.8930026 6.09200486,13.2139994 5.12,13.334 L5.12,15.98 L3.878,15.98 L3.878,13.37 C3.22999676,13.3099997 2.60000306,13.1510013 1.988,12.893 C1.37599694,12.6349987 0.8600021,12.3200019 0.44,11.948 Z" id="$" fill-opacity="0.2"></path>
            </g>
            <g id="Command-1" transform="translate(139.000000, 148.000000)" fill="#0013FF">
                <path d="M25.94,14.216 C25.2679966,14.216 24.6440029,14.114001 24.068,13.91 C23.4919971,13.705999 22.9880022,13.406002 22.556,13.01 C22.1239978,12.613998 21.7850012,12.1280029 21.539,11.552 C21.2929988,10.9759971 21.17,10.3220037 21.17,9.59 C21.17,8.8699964 21.2959987,8.22500285 21.548,7.655 C21.8000013,7.08499715 22.1329979,6.60200198 22.547,6.206 C22.9610021,5.80999802 23.4379973,5.50700105 23.978,5.297 C24.5180027,5.08699895 25.0819971,4.982 25.67,4.982 C26.3180032,4.982 26.8939975,5.08399898 27.398,5.288 C27.9020025,5.49200102 28.3249983,5.77699817 28.667,6.143 C29.0090017,6.50900183 29.2699991,6.94699745 29.45,7.457 C29.6300009,7.96700255 29.72,8.52799694 29.72,9.14 C29.72,9.33200096 29.7140001,9.51199916 29.702,9.68 C29.6899999,9.84800084 29.6720001,9.9919994 29.648,10.112 L22.952,10.112 C23.0480005,11.0240046 23.392997,11.7019978 23.987,12.146 C24.581003,12.5900022 25.3099957,12.812 26.174,12.812 C26.6660025,12.812 27.115998,12.7430007 27.524,12.605 C27.932002,12.4669993 28.333998,12.2780012 28.73,12.038 L29.36,13.172 C28.9039977,13.4720015 28.3910029,13.720999 27.821,13.919 C27.2509972,14.117001 26.6240034,14.216 25.94,14.216 Z M25.724,6.386 C25.3879983,6.386 25.0700015,6.43699949 24.77,6.539 C24.4699985,6.64100051 24.2000012,6.79399898 23.96,6.998 C23.7199988,7.20200102 23.5160008,7.4539985 23.348,7.754 C23.1799992,8.0540015 23.0600004,8.40199802 22.988,8.798 L28.118,8.798 C28.0579997,7.99399598 27.8150021,7.39100201 27.389,6.989 C26.9629979,6.58699799 26.4080034,6.386 25.724,6.386 Z M36.47,14.216 C35.7859966,14.216 35.147003,14.114001 34.553,13.91 C33.9589971,13.705999 33.4460022,13.406002 33.014,13.01 C32.5819979,12.613998 32.2430013,12.1310029 31.997,11.561 C31.7509988,10.9909972 31.628,10.3400037 31.628,9.608 C31.628,8.87599634 31.7599987,8.22200288 32.024,7.646 C32.2880014,7.06999712 32.6479978,6.58400198 33.104,6.188 C33.5600023,5.79199802 34.0849971,5.49200102 34.679,5.288 C35.273003,5.08399898 35.9059967,4.982 36.578,4.982 C37.2980036,4.982 37.9279973,5.10499877 38.468,5.351 C39.0080027,5.59700123 39.4579982,5.89399826 39.818,6.242 L38.954,7.376 C38.6059983,7.08799856 38.2460019,6.86300081 37.874,6.701 C37.5019982,6.53899919 37.1000022,6.458 36.668,6.458 C36.1999977,6.458 35.768002,6.53299925 35.372,6.683 C34.9759981,6.83300075 34.6370014,7.04599862 34.355,7.322 C34.0729986,7.59800138 33.8540008,7.93099805 33.698,8.321 C33.5419993,8.71100195 33.464,9.13999766 33.464,9.608 C33.464,10.0760023 33.5389993,10.504998 33.689,10.895 C33.8390008,11.2850019 34.0549986,11.6179986 34.337,11.894 C34.6190014,12.1700014 34.9519981,12.3829992 35.336,12.533 C35.720002,12.6830007 36.1459977,12.758 36.614,12.758 C37.1540027,12.758 37.6369979,12.656001 38.063,12.452 C38.4890022,12.247999 38.8759983,12.0020014 39.224,11.714 L39.998,12.866 C39.4939975,13.2980022 38.942003,13.6309988 38.342,13.865 C37.741997,14.0990012 37.1180033,14.216 36.47,14.216 Z M42.1040001,14 L42.1040001,1.238 L43.8860001,1.238 L43.8860001,4.622 L43.7780001,6.602 L43.8320001,6.602 C44.2520022,6.14599772 44.7169975,5.76200156 45.2270001,5.45 C45.7370026,5.13799844 46.3339967,4.982 47.0180001,4.982 C48.0500052,4.982 48.8059977,5.28799694 49.2860001,5.9 C49.7660025,6.51200306 50.0060001,7.39399424 50.0060001,8.546 L50.0060001,14 L48.2240001,14 L48.2240001,8.78 C48.2240001,8.01199616 48.0860015,7.44500183 47.8100001,7.079 C47.5339987,6.71299817 47.0600034,6.53 46.3880001,6.53 C45.9199977,6.53 45.5000019,6.64699883 45.1280001,6.881 C44.7559982,7.11500117 44.3420024,7.46599766 43.8860001,7.934 L43.8860001,14 L42.1040001,14 Z M56.1800001,14.216 C55.6039972,14.216 55.0520028,14.114001 54.5240001,13.91 C53.9959975,13.705999 53.5280022,13.406002 53.1200001,13.01 C52.7119981,12.613998 52.3880013,12.1310029 52.1480001,11.561 C51.9079989,10.9909972 51.7880001,10.3400037 51.7880001,9.608 C51.7880001,8.87599634 51.9079989,8.22200288 52.1480001,7.646 C52.3880013,7.06999712 52.7119981,6.58400198 53.1200001,6.188 C53.5280022,5.79199802 53.9959975,5.49200102 54.5240001,5.288 C55.0520028,5.08399898 55.6039972,4.982 56.1800001,4.982 C56.756003,4.982 57.3079975,5.08399898 57.8360001,5.288 C58.3640028,5.49200102 58.8319981,5.79199802 59.2400001,6.188 C59.6480022,6.58400198 59.9719989,7.06999712 60.2120001,7.646 C60.4520013,8.22200288 60.5720001,8.87599634 60.5720001,9.608 C60.5720001,10.3400037 60.4520013,10.9909972 60.2120001,11.561 C59.9719989,12.1310029 59.6480022,12.613998 59.2400001,13.01 C58.8319981,13.406002 58.3640028,13.705999 57.8360001,13.91 C57.3079975,14.114001 56.756003,14.216 56.1800001,14.216 Z M56.1800001,12.758 C56.9720041,12.758 57.5959978,12.4700029 58.0520001,11.894 C58.5080024,11.3179971 58.7360001,10.5560047 58.7360001,9.608 C58.7360001,8.65999526 58.5080024,7.89800288 58.0520001,7.322 C57.5959978,6.74599712 56.9720041,6.458 56.1800001,6.458 C55.3879962,6.458 54.7640024,6.74599712 54.3080001,7.322 C53.8519978,7.89800288 53.6240001,8.65999526 53.6240001,9.608 C53.6240001,10.5560047 53.8519978,11.3179971 54.3080001,11.894 C54.7640024,12.4700029 55.3879962,12.758 56.1800001,12.758 Z M76.1240002,7.88 L75.6200002,3.776 L75.5660002,1.652 L77.8340002,1.652 L77.7800002,3.776 L77.2760002,7.88 L76.1240002,7.88 Z M82.9100002,14 L82.9100002,2.21 L84.7280002,2.21 L84.7280002,7.052 L89.1920002,7.052 L89.1920002,2.21 L91.0100002,2.21 L91.0100002,14 L89.1920002,14 L89.1920002,8.618 L84.7280002,8.618 L84.7280002,14 L82.9100002,14 Z M97.7600003,14.216 C97.0879969,14.216 96.4640031,14.114001 95.8880003,13.91 C95.3119974,13.705999 94.8080024,13.406002 94.3760003,13.01 C93.9439981,12.613998 93.6050015,12.1280029 93.3590003,11.552 C93.112999,10.9759971 92.9900003,10.3220037 92.9900003,9.59 C92.9900003,8.8699964 93.115999,8.22500285 93.3680003,7.655 C93.6200015,7.08499715 93.9529982,6.60200198 94.3670003,6.206 C94.7810023,5.80999802 95.2579976,5.50700105 95.7980003,5.297 C96.338003,5.08699895 96.9019973,4.982 97.4900003,4.982 C98.1380035,4.982 98.7139977,5.08399898 99.2180003,5.288 C99.7220028,5.49200102 100.144999,5.77699817 100.487,6.143 C100.829002,6.50900183 101.089999,6.94699745 101.27,7.457 C101.450001,7.96700255 101.54,8.52799694 101.54,9.14 C101.54,9.33200096 101.534,9.51199916 101.522,9.68 C101.51,9.84800084 101.492,9.9919994 101.468,10.112 L94.7720003,10.112 C94.8680007,11.0240046 95.2129973,11.7019978 95.8070003,12.146 C96.4010032,12.5900022 97.1299959,12.812 97.9940003,12.812 C98.4860027,12.812 98.9359982,12.7430007 99.3440003,12.605 C99.7520023,12.4669993 100.153998,12.2780012 100.55,12.038 L101.18,13.172 C100.723998,13.4720015 100.211003,13.720999 99.6410003,13.919 C99.0709974,14.117001 98.4440037,14.216 97.7600003,14.216 Z M97.5440003,6.386 C97.2079986,6.386 96.8900018,6.43699949 96.5900003,6.539 C96.2899988,6.64100051 96.0200015,6.79399898 95.7800003,6.998 C95.5399991,7.20200102 95.3360011,7.4539985 95.1680003,7.754 C94.9999994,8.0540015 94.8800006,8.40199802 94.8080003,8.798 L99.9380003,8.798 C99.878,7.99399598 99.6350024,7.39100201 99.2090003,6.989 C98.7829981,6.58699799 98.2280037,6.386 97.5440003,6.386 Z M109.352,14.216 C108.367995,14.216 107.618003,13.9340028 107.102,13.37 C106.585998,12.8059972 106.328,11.9900053 106.328,10.922 L106.328,2.66 L103.448,2.66 L103.448,1.238 L108.11,1.238 L108.11,11.03 C108.11,11.6420031 108.262999,12.0829987 108.569,12.353 C108.875002,12.6230013 109.273998,12.758 109.766,12.758 C110.222003,12.758 110.749997,12.6320013 111.35,12.38 L111.782,13.712 C111.361998,13.8800008 110.975002,14.0059996 110.621,14.09 C110.266999,14.1740004 109.844003,14.216 109.352,14.216 Z M119.612,14.216 C118.627995,14.216 117.878003,13.9340028 117.362,13.37 C116.845998,12.8059972 116.588,11.9900053 116.588,10.922 L116.588,2.66 L113.708,2.66 L113.708,1.238 L118.37,1.238 L118.37,11.03 C118.37,11.6420031 118.522999,12.0829987 118.829,12.353 C119.135002,12.6230013 119.533998,12.758 120.026,12.758 C120.482003,12.758 121.009997,12.6320013 121.61,12.38 L122.042,13.712 C121.621998,13.8800008 121.235002,14.0059996 120.881,14.09 C120.526999,14.1740004 120.104003,14.216 119.612,14.216 Z M128,14.216 C127.423998,14.216 126.872003,14.114001 126.344,13.91 C125.815998,13.705999 125.348002,13.406002 124.94,13.01 C124.531998,12.613998 124.208002,12.1310029 123.968,11.561 C123.727999,10.9909972 123.608,10.3400037 123.608,9.608 C123.608,8.87599634 123.727999,8.22200288 123.968,7.646 C124.208002,7.06999712 124.531998,6.58400198 124.94,6.188 C125.348002,5.79199802 125.815998,5.49200102 126.344,5.288 C126.872003,5.08399898 127.423998,4.982 128,4.982 C128.576003,4.982 129.127998,5.08399898 129.656,5.288 C130.184003,5.49200102 130.651998,5.79199802 131.06,6.188 C131.468002,6.58400198 131.791999,7.06999712 132.032,7.646 C132.272002,8.22200288 132.392,8.87599634 132.392,9.608 C132.392,10.3400037 132.272002,10.9909972 132.032,11.561 C131.791999,12.1310029 131.468002,12.613998 131.06,13.01 C130.651998,13.406002 130.184003,13.705999 129.656,13.91 C129.127998,14.114001 128.576003,14.216 128,14.216 Z M128,12.758 C128.792004,12.758 129.415998,12.4700029 129.872,11.894 C130.328003,11.3179971 130.556,10.5560047 130.556,9.608 C130.556,8.65999526 130.328003,7.89800288 129.872,7.322 C129.415998,6.74599712 128.792004,6.458 128,6.458 C127.207996,6.458 126.584003,6.74599712 126.128,7.322 C125.671998,7.89800288 125.444,8.65999526 125.444,9.608 C125.444,10.5560047 125.671998,11.3179971 126.128,11.894 C126.584003,12.4700029 127.207996,12.758 128,12.758 Z M137.684,7.88 L137.18,3.776 L137.126,1.652 L139.394,1.652 L139.34,3.776 L138.836,7.88 L137.684,7.88 Z" id="echo-'Hello'"></path>
                <path d="M0.44,11.948 L1.25,10.724 C1.7300024,11.0600017 2.24299727,11.3449988 2.789,11.579 C3.33500273,11.8130012 3.93199676,11.93 4.58,11.93 C5.21600318,11.93 5.69899835,11.8040013 6.029,11.552 C6.35900165,11.2999987 6.524,10.9640021 6.524,10.544 C6.524,10.2079983 6.38600138,9.92600114 6.11,9.698 C5.83399862,9.46999886 5.48900207,9.2660009 5.075,9.086 C4.66099793,8.9059991 4.2140024,8.7260009 3.734,8.546 C3.2539976,8.3659991 2.80700207,8.15300123 2.393,7.907 C1.97899793,7.66099877 1.63400138,7.36400174 1.358,7.016 C1.08199862,6.66799826 0.944,6.23000264 0.944,5.702 C0.944,4.93399616 1.21099733,4.30400246 1.745,3.812 C2.27900267,3.31999754 2.98999556,3.02000054 3.878,2.912 L3.878,0.554 L5.12,0.554 L5.12,2.894 C5.76800324,2.9540003 6.31699775,3.11299871 6.767,3.371 C7.21700225,3.62900129 7.6219982,3.9379982 7.982,4.298 L7.064,5.342 C6.85999898,5.18599922 6.66200096,5.04500063 6.47,4.919 C6.27799904,4.79299937 6.08000102,4.68800042 5.876,4.604 C5.67199898,4.51999958 5.45600114,4.45400024 5.228,4.406 C4.99999886,4.35799976 4.74200144,4.334 4.454,4.334 C3.90199724,4.334 3.46700159,4.45099883 3.149,4.685 C2.83099841,4.91900117 2.672,5.2459979 2.672,5.666 C2.672,5.9660015 2.80999862,6.21499901 3.086,6.413 C3.36200138,6.61100099 3.70699793,6.79399916 4.121,6.962 C4.53500207,7.13000084 4.98499757,7.30099913 5.471,7.475 C5.95700243,7.64900087 6.40699793,7.86199874 6.821,8.114 C7.23500207,8.36600126 7.57999862,8.67499817 7.856,9.041 C8.13200138,9.40700183 8.27,9.86599724 8.27,10.418 C8.27,11.1980039 7.98800282,11.8489974 7.424,12.371 C6.85999718,12.8930026 6.09200486,13.2139994 5.12,13.334 L5.12,15.98 L3.878,15.98 L3.878,13.37 C3.22999676,13.3099997 2.60000306,13.1510013 1.988,12.893 C1.37599694,12.6349987 0.8600021,12.3200019 0.44,11.948 Z" id="$" fill-opacity="0.2"></path>
            </g>
            <path d="M306.83,111.216 C306.409998,111.216 305.963002,111.114001 305.489,110.91 C305.014998,110.705999 304.580002,110.412002 304.184,110.028 L304.13,110.028 L303.968,111 L302.564,111 L302.564,98.238 L304.346,98.238 L304.346,101.622 L304.274,103.242 L304.328,103.242 C304.712002,102.857998 305.149997,102.552001 305.642,102.324 C306.134002,102.095999 306.631997,101.982 307.136,101.982 C307.712003,101.982 308.227998,102.086999 308.684,102.297 C309.140002,102.507001 309.520998,102.806998 309.827,103.197 C310.133001,103.587002 310.366999,104.057997 310.529,104.61 C310.691001,105.162003 310.772,105.779997 310.772,106.464 C310.772,107.220004 310.664001,107.891997 310.448,108.48 C310.231999,109.068003 309.941002,109.562998 309.575,109.965 C309.208998,110.367002 308.789002,110.675999 308.315,110.892 C307.840998,111.108001 307.346003,111.216 306.83,111.216 Z M306.488,109.74 C307.184003,109.74 307.765998,109.461003 308.234,108.903 C308.702002,108.344997 308.936,107.538005 308.936,106.482 C308.936,105.557995 308.756002,104.826003 308.396,104.286 C308.035998,103.745997 307.460004,103.476 306.668,103.476 C306.307998,103.476 305.930002,103.568999 305.534,103.755 C305.137998,103.941001 304.742002,104.243998 304.346,104.664 L304.346,108.822 C304.718002,109.158002 305.095998,109.394999 305.48,109.533 C305.864002,109.671001 306.199998,109.74 306.488,109.74 Z M315.578,111.216 C315.157998,111.216 314.765002,111.156001 314.399,111.036 C314.032998,110.915999 313.718001,110.745001 313.454,110.523 C313.189999,110.300999 312.983001,110.034002 312.833,109.722 C312.682999,109.409998 312.608,109.062002 312.608,108.678 C312.608,108.185998 312.724999,107.754002 312.959,107.382 C313.193001,107.009998 313.558997,106.692001 314.057,106.428 C314.555002,106.163999 315.196996,105.948001 315.983,105.78 C316.769004,105.611999 317.713994,105.486 318.818,105.402 C318.794,104.861997 318.617002,104.400002 318.287,104.016 C317.956998,103.631998 317.402004,103.44 316.622,103.44 C316.081997,103.44 315.557003,103.541999 315.047,103.746 C314.536997,103.950001 314.066002,104.177999 313.634,104.43 L312.968,103.224 C313.208001,103.079999 313.477998,102.933001 313.778,102.783 C314.078001,102.632999 314.398998,102.498001 314.741,102.378 C315.083002,102.257999 315.436998,102.162 315.803,102.09 C316.169002,102.018 316.543998,101.982 316.928,101.982 C318.152006,101.982 319.069997,102.311997 319.682,102.972 C320.294003,103.632003 320.6,104.543994 320.6,105.708 L320.6,111 L319.142,111 L318.998,109.866 L318.944,109.866 C318.475998,110.226002 317.951003,110.540999 317.369,110.811 C316.786997,111.081001 316.190003,111.216 315.578,111.216 Z M316.082,109.794 C316.550002,109.794 317.008998,109.692001 317.459,109.488 C317.909002,109.283999 318.361998,108.996002 318.818,108.624 L318.818,106.536 C317.953996,106.608 317.234003,106.700999 316.658,106.815 C316.081997,106.929001 315.623002,107.072999 315.281,107.247 C314.938998,107.421001 314.696001,107.615999 314.552,107.832 C314.407999,108.048001 314.336,108.287999 314.336,108.552 C314.336,108.996002 314.506998,109.313999 314.849,109.506 C315.191002,109.698001 315.601998,109.794 316.082,109.794 Z M327.008,111.216 C326.167996,111.216 325.376004,111.081001 324.632,110.811 C323.887996,110.540999 323.246003,110.220002 322.706,109.848 L323.498,108.696 C324.014003,109.056002 324.574997,109.337999 325.181,109.542 C325.787003,109.746001 326.473996,109.848 327.242,109.848 C327.926003,109.848 328.429998,109.731001 328.754,109.497 C329.078002,109.262999 329.24,108.978002 329.24,108.642 C329.24,108.485999 329.21,108.342001 329.15,108.21 C329.09,108.077999 328.967001,107.955001 328.781,107.841 C328.594999,107.726999 328.334002,107.616001 327.998,107.508 C327.661998,107.399999 327.218003,107.286001 326.666,107.166 C325.501994,106.925999 324.641003,106.599002 324.083,106.185 C323.524997,105.770998 323.246,105.228003 323.246,104.556 C323.246,104.183998 323.326999,103.842002 323.489,103.53 C323.651001,103.217998 323.890998,102.948001 324.209,102.72 C324.527002,102.491999 324.919998,102.312001 325.388,102.18 C325.856002,102.047999 326.395997,101.982 327.008,101.982 C327.704003,101.982 328.366997,102.098999 328.997,102.333 C329.627003,102.567001 330.163998,102.833999 330.608,103.134 L329.78,104.25 C329.359998,103.973999 328.901002,103.755001 328.403,103.593 C327.904998,103.430999 327.386003,103.35 326.846,103.35 C326.173997,103.35 325.703001,103.457999 325.433,103.674 C325.162999,103.890001 325.028,104.153998 325.028,104.466 C325.028,104.814002 325.213998,105.077999 325.586,105.258 C325.958002,105.438001 326.575996,105.617999 327.44,105.798 C328.160004,105.954001 328.750998,106.121999 329.213,106.302 C329.675002,106.482001 330.040999,106.679999 330.311,106.896 C330.581001,107.112001 330.769999,107.354999 330.878,107.625 C330.986001,107.895001 331.04,108.197998 331.04,108.534 C331.04,108.906002 330.950001,109.253998 330.77,109.578 C330.589999,109.902002 330.329002,110.186999 329.987,110.433 C329.644998,110.679001 329.225002,110.870999 328.727,111.009 C328.228998,111.147001 327.656003,111.216 327.008,111.216 Z M333.344,111 L333.344,98.238 L335.126,98.238 L335.126,101.622 L335.018,103.602 L335.072,103.602 C335.492002,103.145998 335.956997,102.762002 336.467,102.45 C336.977003,102.137998 337.573997,101.982 338.258,101.982 C339.290005,101.982 340.045998,102.287997 340.526,102.9 C341.006002,103.512003 341.246,104.393994 341.246,105.546 L341.246,111 L339.464,111 L339.464,105.78 C339.464,105.011996 339.326001,104.445002 339.05,104.079 C338.773999,103.712998 338.300003,103.53 337.628,103.53 C337.159998,103.53 336.740002,103.646999 336.368,103.881 C335.995998,104.115001 335.582002,104.465998 335.126,104.934 L335.126,111 L333.344,111 Z" id="bash" fill="#0013FF"></path>
            <path d="M122.5,253.5 L518.545452,253.5" id="Line" stroke-opacity="0.1" stroke="#0013FF" stroke-width="3" stroke-linecap="square"></path>
        </g>
    </g>
</svg>