<?xml version="1.0" encoding="UTF-8"?>
<svg width="408px" height="308px" viewBox="0 0 408 308" version="1.1" xmlns="http://www.w3.org/2000/svg" xmlns:xlink="http://www.w3.org/1999/xlink">
    <!-- Generator: Sketch 41 (35326) - http://www.bohemiancoding.com/sketch -->
    <title>demo2</title>
    <desc>Created with Sketch.</desc>
    <defs>
        <rect id="path-1" x="121" y="78" width="400" height="300"></rect>
        <filter x="-50%" y="-50%" width="200%" height="200%" filterUnits="objectBoundingBox" id="filter-2">
            <feOffset dx="8" dy="8" in="SourceAlpha" result="shadowOffsetOuter1"></feOffset>
            <feComposite in="shadowOffsetOuter1" in2="SourceAlpha" operator="out" result="shadowOffsetOuter1"></feComposite>
            <feColorMatrix values="0 0 0 0 0   0 0 0 0 0.0745098039   0 0 0 0 1  0 0 0 0.1 0" type="matrix" in="shadowOffsetOuter1"></feColorMatrix>
        </filter>
        <mask id="mask-3" maskContentUnits="userSpaceOnUse" maskUnits="objectBoundingBox" x="0" y="0" width="400" height="300" fill="white">
            <use xlink:href="#path-1"></use>
        </mask>
        <rect id="path-4" x="80" y="53" width="23" height="6" rx="3"></rect>
        <mask id="mask-5" maskContentUnits="userSpaceOnUse" maskUnits="objectBoundingBox" x="0" y="0" width="23" height="6" fill="white">
            <use xlink:href="#path-4"></use>
        </mask>
    </defs>
    <g id="Demos" stroke="none" stroke-width="1" fill="none" fill-rule="evenodd">
        <g id="Demo-2" transform="translate(-121.000000, -78.000000)">
            <g id="Terminal">
                <use fill="black" fill-opacity="1" filter="url(#filter-2)" xlink:href="#path-1"></use>
                <use stroke="#0013FF" mask="url(#mask-3)" stroke-width="6" fill="#FFFFFF" fill-rule="evenodd" xlink:href="#path-1"></use>
            </g>
            <rect id="Tab" fill="#E5E7FF" x="326" y="81" width="192" height="48"></rect>
            <g id="Seperators" transform="translate(123.000000, 82.000000)" stroke-width="3" stroke-linecap="square">
                <path d="M198.5,177.5 L198.5,49.4673491" id="Line" stroke-opacity="0.1" stroke="#0013FF"></path>
                <path d="M201.5,46.5 L201.5,0.467349114" id="Line" stroke="#CCD0FF"></path>
                <path d="M198.5,48.5099925 L198.5,0.5" id="Line" stroke="#0013FF"></path>
                <path d="M0.5,48.5 L395.545567,48.5" id="Line" stroke="#0013FF"></path>
                <path d="M201.476811,173.5 L393.5,173.5" id="Line" stroke="#CCD0FF"></path>
                <path d="M198.476811,173.5 L198.476811,291.500002" id="Line" stroke="#CCD0FF"></path>
            </g>
            <path d="M391.156,110 L391.156,101.198 L392.56,101.198 L392.704,102.35 L392.74,102.35 C392.944001,101.953998 393.198998,101.627001 393.505,101.369 C393.811001,101.110999 394.215997,100.982 394.72,100.982 C395.560004,100.982 396.099999,101.485995 396.34,102.494 C396.580001,102.037998 396.852998,101.672001 397.159,101.396 C397.465001,101.119999 397.869997,100.982 398.374,100.982 C398.998003,100.982 399.480998,101.218998 399.823,101.693 C400.165002,102.167002 400.336,102.847996 400.336,103.736 L400.336,110 L398.59,110 L398.59,103.862 C398.59,102.961996 398.320003,102.512 397.78,102.512 C397.503999,102.512 397.276001,102.613999 397.096,102.818 C396.915999,103.022001 396.724001,103.327998 396.52,103.736 L396.52,110 L394.972,110 L394.972,103.862 C394.972,102.961996 394.708003,102.512 394.18,102.512 C393.903999,102.512 393.670001,102.613999 393.478,102.818 C393.285999,103.022001 393.094001,103.327998 392.902,103.736 L392.902,110 L391.156,110 Z M405.88,110.216 C405.303997,110.216 404.752003,110.114001 404.224,109.91 C403.695997,109.705999 403.228002,109.406002 402.82,109.01 C402.411998,108.613998 402.088001,108.131003 401.848,107.561 C401.607999,106.990997 401.488,106.340004 401.488,105.608 C401.488,104.875996 401.607999,104.222003 401.848,103.646 C402.088001,103.069997 402.411998,102.584002 402.82,102.188 C403.228002,101.791998 403.695997,101.492001 404.224,101.288 C404.752003,101.083999 405.303997,100.982 405.88,100.982 C406.456003,100.982 407.007997,101.083999 407.536,101.288 C408.064003,101.492001 408.531998,101.791998 408.94,102.188 C409.348002,102.584002 409.671999,103.069997 409.912,103.646 C410.152001,104.222003 410.272,104.875996 410.272,105.608 C410.272,106.340004 410.152001,106.990997 409.912,107.561 C409.671999,108.131003 409.348002,108.613998 408.94,109.01 C408.531998,109.406002 408.064003,109.705999 407.536,109.91 C407.007997,110.114001 406.456003,110.216 405.88,110.216 Z M405.88,108.758 C406.672004,108.758 407.295998,108.470003 407.752,107.894 C408.208002,107.317997 408.436,106.556005 408.436,105.608 C408.436,104.659995 408.208002,103.898003 407.752,103.322 C407.295998,102.745997 406.672004,102.458 405.88,102.458 C405.087996,102.458 404.464002,102.745997 404.008,103.322 C403.551998,103.898003 403.324,104.659995 403.324,105.608 C403.324,106.556005 403.551998,107.317997 404.008,107.894 C404.464002,108.470003 405.087996,108.758 405.88,108.758 Z M412.324,110 L412.324,101.198 L413.782,101.198 L413.926,102.62 L413.998,102.62 C414.442002,102.163998 414.921997,101.777002 415.438,101.459 C415.954003,101.140998 416.553997,100.982 417.238,100.982 C418.270005,100.982 419.025998,101.287997 419.506,101.9 C419.986002,102.512003 420.226,103.393994 420.226,104.546 L420.226,110 L418.444,110 L418.444,104.78 C418.444,104.011996 418.306001,103.445002 418.03,103.079 C417.753999,102.712998 417.280003,102.53 416.608,102.53 C416.139998,102.53 415.720002,102.646999 415.348,102.881 C414.975998,103.115001 414.562002,103.465998 414.106,103.934 L414.106,110 L412.324,110 Z M426.238,113.978 C424.977994,113.978 423.991004,113.774002 423.277,113.366 C422.562996,112.957998 422.206,112.364004 422.206,111.584 C422.206,110.839996 422.679995,110.204003 423.628,109.676 L423.628,109.604 C423.387999,109.471999 423.178001,109.289001 422.998,109.055 C422.817999,108.820999 422.728,108.518002 422.728,108.146 C422.728,107.857999 422.820999,107.567001 423.007,107.273 C423.193001,106.978999 423.447998,106.718001 423.772,106.49 L423.772,106.418 C423.459998,106.189999 423.199001,105.887002 422.989,105.509 C422.778999,105.130998 422.674,104.678003 422.674,104.15 C422.674,103.657998 422.769999,103.217002 422.962,102.827 C423.154001,102.436998 423.411998,102.104001 423.736,101.828 C424.060002,101.551999 424.434998,101.342001 424.861,101.198 C425.287002,101.053999 425.739998,100.982 426.22,100.982 C426.712002,100.982 427.155998,101.053999 427.552,101.198 L431.17,101.198 L431.17,102.602 L429.028,102.602 C429.196001,102.794001 429.345999,103.030999 429.478,103.313 C429.610001,103.595001 429.676,103.891998 429.676,104.204 C429.676,104.684002 429.586001,105.109998 429.406,105.482 C429.225999,105.854002 428.980002,106.168999 428.668,106.427 C428.355998,106.685001 427.990002,106.879999 427.57,107.012 C427.149998,107.144001 426.700002,107.21 426.22,107.21 C426.003999,107.21 425.773001,107.186 425.527,107.138 C425.280999,107.09 425.038001,107.018 424.798,106.922 C424.389998,107.186001 424.186,107.491998 424.186,107.84 C424.186,108.452003 424.767994,108.758 425.932,108.758 L427.804,108.758 C428.956006,108.758 429.813997,108.919998 430.378,109.244 C430.942003,109.568002 431.224,110.107996 431.224,110.864 C431.224,111.296002 431.107001,111.700998 430.873,112.079 C430.638999,112.457002 430.306002,112.786999 429.874,113.069 C429.441998,113.351001 428.917003,113.572999 428.299,113.735 C427.680997,113.897001 426.994004,113.978 426.238,113.978 Z M426.22,106.058 C426.724003,106.058 427.155998,105.890002 427.516,105.554 C427.876002,105.217998 428.056,104.750003 428.056,104.15 C428.056,103.573997 427.876002,103.112002 427.516,102.764 C427.155998,102.415998 426.724003,102.242 426.22,102.242 C425.715997,102.242 425.281002,102.415998 424.915,102.764 C424.548998,103.112002 424.366,103.573997 424.366,104.15 C424.366,104.750003 424.548998,105.217998 424.915,105.554 C425.281002,105.890002 425.715997,106.058 426.22,106.058 Z M426.418,112.736 C426.886002,112.736 427.308998,112.691 427.687,112.601 C428.065002,112.511 428.385999,112.394001 428.65,112.25 C428.914001,112.105999 429.117999,111.941001 429.262,111.755 C429.406001,111.568999 429.478,111.374001 429.478,111.17 C429.478,110.785998 429.322002,110.528001 429.01,110.396 C428.697998,110.263999 428.230003,110.198 427.606,110.198 L426.04,110.198 C425.763999,110.198 425.518001,110.189 425.302,110.171 C425.085999,110.153 424.888001,110.114 424.708,110.054 C424.335998,110.258001 424.075001,110.470999 423.925,110.693 C423.774999,110.915001 423.7,111.139999 423.7,111.368 C423.7,111.788002 423.933998,112.120999 424.402,112.367 C424.870002,112.613001 425.541996,112.736 426.418,112.736 Z M436.66,110.216 C436.083997,110.216 435.532003,110.114001 435.004,109.91 C434.475997,109.705999 434.008002,109.406002 433.6,109.01 C433.191998,108.613998 432.868001,108.131003 432.628,107.561 C432.387999,106.990997 432.268,106.340004 432.268,105.608 C432.268,104.875996 432.387999,104.222003 432.628,103.646 C432.868001,103.069997 433.191998,102.584002 433.6,102.188 C434.008002,101.791998 434.475997,101.492001 435.004,101.288 C435.532003,101.083999 436.083997,100.982 436.66,100.982 C437.236003,100.982 437.787997,101.083999 438.316,101.288 C438.844003,101.492001 439.311998,101.791998 439.72,102.188 C440.128002,102.584002 440.451999,103.069997 440.692,103.646 C440.932001,104.222003 441.052,104.875996 441.052,105.608 C441.052,106.340004 440.932001,106.990997 440.692,107.561 C440.451999,108.131003 440.128002,108.613998 439.72,109.01 C439.311998,109.406002 438.844003,109.705999 438.316,109.91 C437.787997,110.114001 437.236003,110.216 436.66,110.216 Z M436.66,108.758 C437.452004,108.758 438.075998,108.470003 438.532,107.894 C438.988002,107.317997 439.216,106.556005 439.216,105.608 C439.216,104.659995 438.988002,103.898003 438.532,103.322 C438.075998,102.745997 437.452004,102.458 436.66,102.458 C435.867996,102.458 435.244002,102.745997 434.788,103.322 C434.331998,103.898003 434.104,104.659995 434.104,105.608 C434.104,106.556005 434.331998,107.317997 434.788,107.894 C435.244002,108.470003 435.867996,108.758 436.66,108.758 Z M446.326,110.216 C445.749997,110.216 445.231002,110.114001 444.769,109.91 C444.306998,109.705999 443.908002,109.406002 443.572,109.01 C443.235998,108.613998 442.978001,108.131003 442.798,107.561 C442.617999,106.990997 442.528,106.340004 442.528,105.608 C442.528,104.887996 442.638999,104.243003 442.861,103.673 C443.083001,103.102997 443.376998,102.620002 443.743,102.224 C444.109002,101.827998 444.528998,101.522001 445.003,101.306 C445.477002,101.089999 445.965998,100.982 446.47,100.982 C446.986003,100.982 447.444998,101.077999 447.847,101.27 C448.249002,101.462001 448.629998,101.731998 448.99,102.08 L449.044,102.08 L448.954,100.514 L448.954,97.238 L450.736,97.238 L450.736,110 L449.278,110 L449.134,108.92 L449.08,108.92 C448.731998,109.268002 448.318002,109.570999 447.838,109.829 C447.357998,110.087001 446.854003,110.216 446.326,110.216 Z M446.74,108.74 C447.532004,108.74 448.269997,108.344004 448.954,107.552 L448.954,103.376 C448.605998,103.039998 448.258002,102.806001 447.91,102.674 C447.561998,102.541999 447.214002,102.476 446.866,102.476 C446.517998,102.476 446.194002,102.547999 445.894,102.692 C445.593999,102.836001 445.330001,103.042999 445.102,103.313 C444.873999,103.583001 444.694001,103.909998 444.562,104.294 C444.429999,104.678002 444.364,105.109998 444.364,105.59 C444.364,106.610005 444.570998,107.389997 444.985,107.93 C445.399002,108.470003 445.983996,108.74 446.74,108.74 Z" id="mongod" fill="#0013FF"></path>
            <path d="M202.33,110.216 C201.909998,110.216 201.463002,110.114001 200.989,109.91 C200.514998,109.705999 200.080002,109.412002 199.684,109.028 L199.63,109.028 L199.468,110 L198.064,110 L198.064,97.238 L199.846,97.238 L199.846,100.622 L199.774,102.242 L199.828,102.242 C200.212002,101.857998 200.649997,101.552001 201.142,101.324 C201.634002,101.095999 202.131997,100.982 202.636,100.982 C203.212003,100.982 203.727998,101.086999 204.184,101.297 C204.640002,101.507001 205.020998,101.806998 205.327,102.197 C205.633001,102.587002 205.866999,103.057997 206.029,103.61 C206.191001,104.162003 206.272,104.779997 206.272,105.464 C206.272,106.220004 206.164001,106.891997 205.948,107.48 C205.731999,108.068003 205.441002,108.562998 205.075,108.965 C204.708998,109.367002 204.289002,109.675999 203.815,109.892 C203.340998,110.108001 202.846003,110.216 202.33,110.216 Z M201.988,108.74 C202.684003,108.74 203.265998,108.461003 203.734,107.903 C204.202002,107.344997 204.436,106.538005 204.436,105.482 C204.436,104.557995 204.256002,103.826003 203.896,103.286 C203.535998,102.745997 202.960004,102.476 202.168,102.476 C201.807998,102.476 201.430002,102.568999 201.034,102.755 C200.637998,102.941001 200.242002,103.243998 199.846,103.664 L199.846,107.822 C200.218002,108.158002 200.595998,108.394999 200.98,108.533 C201.364002,108.671001 201.699998,108.74 201.988,108.74 Z M211.078,110.216 C210.657998,110.216 210.265002,110.156001 209.899,110.036 C209.532998,109.915999 209.218001,109.745001 208.954,109.523 C208.689999,109.300999 208.483001,109.034002 208.333,108.722 C208.182999,108.409998 208.108,108.062002 208.108,107.678 C208.108,107.185998 208.224999,106.754002 208.459,106.382 C208.693001,106.009998 209.058997,105.692001 209.557,105.428 C210.055002,105.163999 210.696996,104.948001 211.483,104.78 C212.269004,104.611999 213.213994,104.486 214.318,104.402 C214.294,103.861997 214.117002,103.400002 213.787,103.016 C213.456998,102.631998 212.902004,102.44 212.122,102.44 C211.581997,102.44 211.057003,102.541999 210.547,102.746 C210.036997,102.950001 209.566002,103.177999 209.134,103.43 L208.468,102.224 C208.708001,102.079999 208.977998,101.933001 209.278,101.783 C209.578001,101.632999 209.898998,101.498001 210.241,101.378 C210.583002,101.257999 210.936998,101.162 211.303,101.09 C211.669002,101.018 212.043998,100.982 212.428,100.982 C213.652006,100.982 214.569997,101.311997 215.182,101.972 C215.794003,102.632003 216.1,103.543994 216.1,104.708 L216.1,110 L214.642,110 L214.498,108.866 L214.444,108.866 C213.975998,109.226002 213.451003,109.540999 212.869,109.811 C212.286997,110.081001 211.690003,110.216 211.078,110.216 Z M211.582,108.794 C212.050002,108.794 212.508998,108.692001 212.959,108.488 C213.409002,108.283999 213.861998,107.996002 214.318,107.624 L214.318,105.536 C213.453996,105.608 212.734003,105.700999 212.158,105.815 C211.581997,105.929001 211.123002,106.072999 210.781,106.247 C210.438998,106.421001 210.196001,106.615999 210.052,106.832 C209.907999,107.048001 209.836,107.287999 209.836,107.552 C209.836,107.996002 210.006998,108.313999 210.349,108.506 C210.691002,108.698001 211.101998,108.794 211.582,108.794 Z M222.508,110.216 C221.667996,110.216 220.876004,110.081001 220.132,109.811 C219.387996,109.540999 218.746003,109.220002 218.206,108.848 L218.998,107.696 C219.514003,108.056002 220.074997,108.337999 220.681,108.542 C221.287003,108.746001 221.973996,108.848 222.742,108.848 C223.426003,108.848 223.929998,108.731001 224.254,108.497 C224.578002,108.262999 224.74,107.978002 224.74,107.642 C224.74,107.485999 224.71,107.342001 224.65,107.21 C224.59,107.077999 224.467001,106.955001 224.281,106.841 C224.094999,106.726999 223.834002,106.616001 223.498,106.508 C223.161998,106.399999 222.718003,106.286001 222.166,106.166 C221.001994,105.925999 220.141003,105.599002 219.583,105.185 C219.024997,104.770998 218.746,104.228003 218.746,103.556 C218.746,103.183998 218.826999,102.842002 218.989,102.53 C219.151001,102.217998 219.390998,101.948001 219.709,101.72 C220.027002,101.491999 220.419998,101.312001 220.888,101.18 C221.356002,101.047999 221.895997,100.982 222.508,100.982 C223.204003,100.982 223.866997,101.098999 224.497,101.333 C225.127003,101.567001 225.663998,101.833999 226.108,102.134 L225.28,103.25 C224.859998,102.973999 224.401002,102.755001 223.903,102.593 C223.404998,102.430999 222.886003,102.35 222.346,102.35 C221.673997,102.35 221.203001,102.457999 220.933,102.674 C220.662999,102.890001 220.528,103.153998 220.528,103.466 C220.528,103.814002 220.713998,104.077999 221.086,104.258 C221.458002,104.438001 222.075996,104.617999 222.94,104.798 C223.660004,104.954001 224.250998,105.121999 224.713,105.302 C225.175002,105.482001 225.540999,105.679999 225.811,105.896 C226.081001,106.112001 226.269999,106.354999 226.378,106.625 C226.486001,106.895001 226.54,107.197998 226.54,107.534 C226.54,107.906002 226.450001,108.253998 226.27,108.578 C226.089999,108.902002 225.829002,109.186999 225.487,109.433 C225.144998,109.679001 224.725002,109.870999 224.227,110.009 C223.728998,110.147001 223.156003,110.216 222.508,110.216 Z M228.844,110 L228.844,97.238 L230.626,97.238 L230.626,100.622 L230.518,102.602 L230.572,102.602 C230.992002,102.145998 231.456997,101.762002 231.967,101.45 C232.477003,101.137998 233.073997,100.982 233.758,100.982 C234.790005,100.982 235.545998,101.287997 236.026,101.9 C236.506002,102.512003 236.746,103.393994 236.746,104.546 L236.746,110 L234.964,110 L234.964,104.78 C234.964,104.011996 234.826001,103.445002 234.55,103.079 C234.273999,102.712998 233.800003,102.53 233.128,102.53 C232.659998,102.53 232.240002,102.646999 231.868,102.881 C231.495998,103.115001 231.082002,103.465998 230.626,103.934 L230.626,110 L228.844,110 Z" id="bash" fill="#0013FF"></path>
            <g id="Browser" transform="translate(320.000000, 254.000000)">
                <g id="Items" transform="translate(20.000000, 17.000000)">
                    <rect id="Rectangle-3" fill-opacity="0.1" fill="#0013FF" x="78" y="76" width="45" height="6"></rect>
                    <rect id="Rectangle-3" fill-opacity="0.1" fill="#0013FF" x="78" y="87" width="35" height="6"></rect>
                    <rect id="Rectangle-3" fill-opacity="0.1" fill="#0013FF" x="78" y="98" width="42" height="6"></rect>
                    <rect id="Rectangle-3" fill-opacity="0.1" fill="#0013FF" x="37" y="75" width="35" height="30"></rect>
                    <rect id="Rectangle-3" fill-opacity="0.1" fill="#0013FF" x="0" y="0" width="27" height="6"></rect>
                    <rect id="Rectangle-3" fill-opacity="0.1" fill="#0013FF" x="151" y="0" width="11" height="6"></rect>
                    <rect id="Rectangle-3" fill-opacity="0.1" fill="#0013FF" x="136" y="0" width="11" height="6"></rect>
                    <rect id="Rectangle-3" fill-opacity="0.1" fill="#0013FF" x="121" y="0" width="11" height="6"></rect>
                    <rect id="Rectangle-3" fill-opacity="0.1" fill="#0013FF" x="47" y="26" width="62" height="10"></rect>
                    <rect id="Rectangle-3" fill-opacity="0.1" fill="#0013FF" x="60" y="41" width="35" height="6"></rect>
                    <rect id="Rectangle-5" fill-opacity="0.1" fill="#0013FF" x="52" y="53" width="23" height="6" rx="3"></rect>
                    <use id="Rectangle-5" stroke-opacity="0.1" stroke="#0013FF" mask="url(#mask-5)" stroke-width="4" xlink:href="#path-4"></use>
                </g>
            </g>
            <g id="Command-2" transform="translate(338.000000, 148.000000)" fill="#0013FF">
                <path d="M21.584,14 L21.584,5.198 L23.042,5.198 L23.186,6.62 L23.258,6.62 C23.7020022,6.16399772 24.1819974,5.77700159 24.698,5.459 C25.2140026,5.14099841 25.8139966,4.982 26.498,4.982 C27.5300052,4.982 28.2859976,5.28799694 28.766,5.9 C29.2460024,6.51200306 29.486,7.39399424 29.486,8.546 L29.486,14 L27.704,14 L27.704,8.78 C27.704,8.01199616 27.5660014,7.44500183 27.29,7.079 C27.0139986,6.71299817 26.5400034,6.53 25.868,6.53 C25.3999977,6.53 24.9800019,6.64699883 24.608,6.881 C24.2359981,7.11500117 23.8220023,7.46599766 23.366,7.934 L23.366,14 L21.584,14 Z M31.844,17.6 L31.844,5.198 L33.302,5.198 L33.446,6.278 L33.5,6.278 C33.896002,5.89399808 34.3519975,5.5820012 34.868,5.342 C35.3840026,5.1019988 35.9059974,4.982 36.434,4.982 C37.0100029,4.982 37.5229978,5.08699895 37.973,5.297 C38.4230023,5.50700105 38.8009985,5.80699805 39.107,6.197 C39.4130016,6.58700195 39.6469992,7.05799724 39.809,7.61 C39.9710008,8.16200276 40.052,8.77999658 40.052,9.464 C40.052,10.2200038 39.9440011,10.8919971 39.728,11.48 C39.511999,12.0680029 39.2210019,12.562998 38.855,12.965 C38.4889982,13.367002 38.0660024,13.6759989 37.586,13.892 C37.1059976,14.1080011 36.6080026,14.216 36.092,14.216 C35.683998,14.216 35.2580023,14.1230009 34.814,13.937 C34.3699978,13.7509991 33.9620019,13.4840017 33.59,13.136 L33.536,13.136 L33.626,14.72 L33.626,17.6 L31.844,17.6 Z M35.75,12.74 C36.4580036,12.74 37.0459977,12.4610028 37.514,11.903 C37.9820024,11.3449972 38.216,10.5380053 38.216,9.482 C38.216,8.55799538 38.0360018,7.8260027 37.676,7.286 C37.3159982,6.7459973 36.740004,6.476 35.948,6.476 C35.5879982,6.476 35.210002,6.56899907 34.814,6.755 C34.4179981,6.94100093 34.022002,7.2439979 33.626,7.664 L33.626,11.822 C33.9980019,12.1580017 34.3759981,12.3949993 34.76,12.533 C35.144002,12.6710007 35.4739987,12.74 35.75,12.74 Z M41.4560001,14 L41.4560001,5.198 L42.8600001,5.198 L43.0040001,6.35 L43.0400001,6.35 C43.2440011,5.95399802 43.4989985,5.62700129 43.8050001,5.369 C44.1110016,5.11099871 44.5159976,4.982 45.0200001,4.982 C45.8600043,4.982 46.3999989,5.48599496 46.6400001,6.494 C46.8800013,6.03799772 47.1529985,5.67200138 47.4590001,5.396 C47.7650016,5.11999862 48.1699976,4.982 48.6740001,4.982 C49.2980032,4.982 49.7809984,5.21899763 50.1230001,5.693 C50.4650018,6.16700237 50.6360001,6.84799556 50.6360001,7.736 L50.6360001,14 L48.8900001,14 L48.8900001,7.862 C48.8900001,6.9619955 48.6200028,6.512 48.0800001,6.512 C47.8039987,6.512 47.576001,6.61399898 47.3960001,6.818 C47.2159992,7.02200102 47.0240011,7.32799796 46.8200001,7.736 L46.8200001,14 L45.2720001,14 L45.2720001,7.862 C45.2720001,6.9619955 45.0080027,6.512 44.4800001,6.512 C44.2039987,6.512 43.970001,6.61399898 43.7780001,6.818 C43.5859991,7.02200102 43.394001,7.32799796 43.2020001,7.736 L43.2020001,14 L41.4560001,14 Z M63.5240002,14 L63.5240002,5.198 L65.0000002,5.198 L65.1440002,7.25 L65.1980002,7.25 C65.6540024,6.5299964 66.2089969,5.97200198 66.8630002,5.576 C67.5170034,5.17999802 68.2399962,4.982 69.0320002,4.982 C69.3800019,4.982 69.6859988,5.00899973 69.9500002,5.063 C70.2140015,5.11700027 70.4839988,5.20999934 70.7600002,5.342 L70.3640002,6.872 C70.0639987,6.77599952 69.8060012,6.70400024 69.5900002,6.656 C69.3739991,6.60799976 69.0980018,6.584 68.7620002,6.584 C68.125997,6.584 67.5140031,6.7639982 66.9260002,7.124 C66.3379972,7.4840018 65.7980026,8.10799556 65.3060002,8.996 L65.3060002,14 L63.5240002,14 Z M75.6200002,14.216 C74.575995,14.216 73.8140026,13.913003 73.3340002,13.307 C72.8539978,12.700997 72.6140002,11.8160058 72.6140002,10.652 L72.6140002,5.198 L74.3960002,5.198 L74.3960002,10.418 C74.3960002,11.1980039 74.5339988,11.7709982 74.8100002,12.137 C75.0860016,12.5030018 75.5599968,12.686 76.2320002,12.686 C76.6880025,12.686 77.1049983,12.5750011 77.4830002,12.353 C77.8610021,12.1309989 78.265998,11.7560026 78.6980002,11.228 L78.6980002,5.198 L80.4800002,5.198 L80.4800002,14 L79.0220002,14 L78.8780002,12.542 L78.8060002,12.542 C78.373998,13.0460025 77.9030027,13.4509985 77.3930002,13.757 C76.8829976,14.0630015 76.2920036,14.216 75.6200002,14.216 Z M83.1440002,14 L83.1440002,5.198 L84.6020002,5.198 L84.7460002,6.62 L84.8180002,6.62 C85.2620024,6.16399772 85.7419976,5.77700159 86.2580002,5.459 C86.7740028,5.14099841 87.3739968,4.982 88.0580002,4.982 C89.0900054,4.982 89.8459978,5.28799694 90.3260002,5.9 C90.8060026,6.51200306 91.0460002,7.39399424 91.0460002,8.546 L91.0460002,14 L89.2640002,14 L89.2640002,8.78 C89.2640002,8.01199616 89.1260016,7.44500183 88.8500002,7.079 C88.5739988,6.71299817 88.1000036,6.53 87.4280002,6.53 C86.9599979,6.53 86.5400021,6.64699883 86.1680002,6.881 C85.7959984,7.11500117 85.3820025,7.46599766 84.9260002,7.934 L84.9260002,14 L83.1440002,14 Z M107.588,14.216 C106.747996,14.216 105.956004,14.0810014 105.212,13.811 C104.467997,13.5409986 103.826003,13.2200019 103.286,12.848 L104.078,11.696 C104.594003,12.0560018 105.154997,12.337999 105.761,12.542 C106.367003,12.746001 107.053996,12.848 107.822,12.848 C108.506004,12.848 109.009999,12.7310012 109.334,12.497 C109.658002,12.2629988 109.82,11.9780017 109.82,11.642 C109.82,11.4859992 109.790001,11.3420007 109.73,11.21 C109.67,11.0779993 109.547001,10.9550006 109.361,10.841 C109.174999,10.7269994 108.914002,10.6160005 108.578,10.508 C108.241999,10.3999995 107.798003,10.2860006 107.246,10.166 C106.081994,9.9259988 105.221003,9.59900207 104.663,9.185 C104.104998,8.77099793 103.826,8.22800336 103.826,7.556 C103.826,7.18399814 103.906999,6.84200156 104.069,6.53 C104.231001,6.21799844 104.470999,5.94800114 104.789,5.72 C105.107002,5.49199886 105.499998,5.31200066 105.968,5.18 C106.436003,5.04799934 106.975997,4.982 107.588,4.982 C108.284004,4.982 108.946997,5.09899883 109.577,5.333 C110.207003,5.56700117 110.743998,5.8339985 111.188,6.134 L110.36,7.25 C109.939998,6.97399862 109.481003,6.75500081 108.983,6.593 C108.484998,6.43099919 107.966003,6.35 107.426,6.35 C106.753997,6.35 106.283002,6.45799892 106.013,6.674 C105.742999,6.89000108 105.608,7.15399844 105.608,7.466 C105.608,7.81400174 105.793998,8.0779991 106.166,8.258 C106.538002,8.4380009 107.155996,8.6179991 108.02,8.798 C108.740004,8.95400078 109.330998,9.1219991 109.793,9.302 C110.255003,9.4820009 110.620999,9.67999892 110.891,9.896 C111.161002,10.1120011 111.35,10.3549986 111.458,10.625 C111.566001,10.8950013 111.62,11.1979983 111.62,11.534 C111.62,11.9060019 111.530001,12.2539984 111.35,12.578 C111.169999,12.9020016 110.909002,13.1869988 110.567,13.433 C110.224999,13.6790012 109.805003,13.8709993 109.307,14.009 C108.808998,14.1470007 108.236004,14.216 107.588,14.216 Z M118.28,14.216 C117.607997,14.216 116.984003,14.114001 116.408,13.91 C115.831997,13.705999 115.328003,13.406002 114.896,13.01 C114.463998,12.613998 114.125002,12.1280029 113.879,11.552 C113.632999,10.9759971 113.51,10.3220037 113.51,9.59 C113.51,8.8699964 113.635999,8.22500285 113.888,7.655 C114.140002,7.08499715 114.472998,6.60200198 114.887,6.206 C115.301002,5.80999802 115.777998,5.50700105 116.318,5.297 C116.858003,5.08699895 117.421997,4.982 118.01,4.982 C118.658004,4.982 119.233998,5.08399898 119.738,5.288 C120.242003,5.49200102 120.664999,5.77699817 121.007,6.143 C121.349002,6.50900183 121.609999,6.94699745 121.79,7.457 C121.970001,7.96700255 122.06,8.52799694 122.06,9.14 C122.06,9.33200096 122.054,9.51199916 122.042,9.68 C122.03,9.84800084 122.012,9.9919994 121.988,10.112 L115.292,10.112 C115.388001,11.0240046 115.732997,11.7019978 116.327,12.146 C116.921003,12.5900022 117.649996,12.812 118.514,12.812 C119.006003,12.812 119.455998,12.7430007 119.864,12.605 C120.272002,12.4669993 120.673998,12.2780012 121.07,12.038 L121.7,13.172 C121.243998,13.4720015 120.731003,13.720999 120.161,13.919 C119.590997,14.117001 118.964004,14.216 118.28,14.216 Z M118.064,6.386 C117.727999,6.386 117.410002,6.43699949 117.11,6.539 C116.809999,6.64100051 116.540002,6.79399898 116.3,6.998 C116.059999,7.20200102 115.856001,7.4539985 115.688,7.754 C115.52,8.0540015 115.400001,8.40199802 115.328,8.798 L120.458,8.798 C120.398,7.99399598 120.155002,7.39100201 119.729,6.989 C119.302998,6.58699799 118.748004,6.386 118.064,6.386 Z M125.084,14 L125.084,5.198 L126.56,5.198 L126.704,7.25 L126.758,7.25 C127.214003,6.5299964 127.768997,5.97200198 128.423,5.576 C129.077004,5.17999802 129.799996,4.982 130.592,4.982 C130.940002,4.982 131.245999,5.00899973 131.51,5.063 C131.774002,5.11700027 132.043999,5.20999934 132.32,5.342 L131.924,6.872 C131.623999,6.77599952 131.366001,6.70400024 131.15,6.656 C130.933999,6.60799976 130.658002,6.584 130.322,6.584 C129.685997,6.584 129.074003,6.7639982 128.486,7.124 C127.897997,7.4840018 127.358003,8.10799556 126.866,8.996 L126.866,14 L125.084,14 Z M137.288,14 L133.688,5.198 L135.488,5.198 L137.342,9.986 C137.510001,10.4300022 137.669,10.8679978 137.819,11.3 C137.969001,11.7320022 138.122,12.1639978 138.278,12.596 L138.35,12.596 C138.506001,12.1639978 138.656,11.7320022 138.8,11.3 C138.944001,10.8679978 139.1,10.4300022 139.268,9.986 L141.122,5.198 L142.832,5.198 L139.304,14 L137.288,14 Z M149.06,14.216 C148.387997,14.216 147.764003,14.114001 147.188,13.91 C146.611998,13.705999 146.108003,13.406002 145.676,13.01 C145.243998,12.613998 144.905002,12.1280029 144.659,11.552 C144.412999,10.9759971 144.29,10.3220037 144.29,9.59 C144.29,8.8699964 144.415999,8.22500285 144.668,7.655 C144.920002,7.08499715 145.252998,6.60200198 145.667,6.206 C146.081003,5.80999802 146.557998,5.50700105 147.098,5.297 C147.638003,5.08699895 148.201998,4.982 148.79,4.982 C149.438004,4.982 150.013998,5.08399898 150.518,5.288 C151.022003,5.49200102 151.444999,5.77699817 151.787,6.143 C152.129002,6.50900183 152.39,6.94699745 152.57,7.457 C152.750001,7.96700255 152.84,8.52799694 152.84,9.14 C152.84,9.33200096 152.834001,9.51199916 152.822,9.68 C152.81,9.84800084 152.792001,9.9919994 152.768,10.112 L146.072,10.112 C146.168001,11.0240046 146.512997,11.7019978 147.107,12.146 C147.701003,12.5900022 148.429996,12.812 149.294,12.812 C149.786003,12.812 150.235998,12.7430007 150.644,12.605 C151.052002,12.4669993 151.453998,12.2780012 151.85,12.038 L152.48,13.172 C152.023998,13.4720015 151.511003,13.720999 150.941,13.919 C150.370998,14.117001 149.744004,14.216 149.06,14.216 Z M148.844,6.386 C148.507999,6.386 148.190002,6.43699949 147.89,6.539 C147.589999,6.64100051 147.320002,6.79399898 147.08,6.998 C146.839999,7.20200102 146.636001,7.4539985 146.468,7.754 C146.3,8.0540015 146.180001,8.40199802 146.108,8.798 L151.238,8.798 C151.178,7.99399598 150.935003,7.39100201 150.509,6.989 C150.082998,6.58699799 149.528004,6.386 148.844,6.386 Z" id="npm-run-serve"></path>
                <path d="M0.44,11.948 L1.25,10.724 C1.7300024,11.0600017 2.24299727,11.3449988 2.789,11.579 C3.33500273,11.8130012 3.93199676,11.93 4.58,11.93 C5.21600318,11.93 5.69899835,11.8040013 6.029,11.552 C6.35900165,11.2999987 6.524,10.9640021 6.524,10.544 C6.524,10.2079983 6.38600138,9.92600114 6.11,9.698 C5.83399862,9.46999886 5.48900207,9.2660009 5.075,9.086 C4.66099793,8.9059991 4.2140024,8.7260009 3.734,8.546 C3.2539976,8.3659991 2.80700207,8.15300123 2.393,7.907 C1.97899793,7.66099877 1.63400138,7.36400174 1.358,7.016 C1.08199862,6.66799826 0.944,6.23000264 0.944,5.702 C0.944,4.93399616 1.21099733,4.30400246 1.745,3.812 C2.27900267,3.31999754 2.98999556,3.02000054 3.878,2.912 L3.878,0.554 L5.12,0.554 L5.12,2.894 C5.76800324,2.9540003 6.31699775,3.11299871 6.767,3.371 C7.21700225,3.62900129 7.6219982,3.9379982 7.982,4.298 L7.064,5.342 C6.85999898,5.18599922 6.66200096,5.04500063 6.47,4.919 C6.27799904,4.79299937 6.08000102,4.68800042 5.876,4.604 C5.67199898,4.51999958 5.45600114,4.45400024 5.228,4.406 C4.99999886,4.35799976 4.74200144,4.334 4.454,4.334 C3.90199724,4.334 3.46700159,4.45099883 3.149,4.685 C2.83099841,4.91900117 2.672,5.2459979 2.672,5.666 C2.672,5.9660015 2.80999862,6.21499901 3.086,6.413 C3.36200138,6.61100099 3.70699793,6.79399916 4.121,6.962 C4.53500207,7.13000084 4.98499757,7.30099913 5.471,7.475 C5.95700243,7.64900087 6.40699793,7.86199874 6.821,8.114 C7.23500207,8.36600126 7.57999862,8.67499817 7.856,9.041 C8.13200138,9.40700183 8.27,9.86599724 8.27,10.418 C8.27,11.1980039 7.98800282,11.8489974 7.424,12.371 C6.85999718,12.8930026 6.09200486,13.2139994 5.12,13.334 L5.12,15.98 L3.878,15.98 L3.878,13.37 C3.22999676,13.3099997 2.60000306,13.1510013 1.988,12.893 C1.37599694,12.6349987 0.8600021,12.3200019 0.44,11.948 Z" id="$" fill-opacity="0.2"></path>
            </g>
            <g id="Command-1" transform="translate(139.000000, 148.000000)" fill="#0013FF">
                <path d="M21.584,14 L21.584,5.198 L23.042,5.198 L23.186,6.62 L23.258,6.62 C23.7020022,6.16399772 24.1819974,5.77700159 24.698,5.459 C25.2140026,5.14099841 25.8139966,4.982 26.498,4.982 C27.5300052,4.982 28.2859976,5.28799694 28.766,5.9 C29.2460024,6.51200306 29.486,7.39399424 29.486,8.546 L29.486,14 L27.704,14 L27.704,8.78 C27.704,8.01199616 27.5660014,7.44500183 27.29,7.079 C27.0139986,6.71299817 26.5400034,6.53 25.868,6.53 C25.3999977,6.53 24.9800019,6.64699883 24.608,6.881 C24.2359981,7.11500117 23.8220023,7.46599766 23.366,7.934 L23.366,14 L21.584,14 Z M31.844,17.6 L31.844,5.198 L33.302,5.198 L33.446,6.278 L33.5,6.278 C33.896002,5.89399808 34.3519975,5.5820012 34.868,5.342 C35.3840026,5.1019988 35.9059974,4.982 36.434,4.982 C37.0100029,4.982 37.5229978,5.08699895 37.973,5.297 C38.4230023,5.50700105 38.8009985,5.80699805 39.107,6.197 C39.4130016,6.58700195 39.6469992,7.05799724 39.809,7.61 C39.9710008,8.16200276 40.052,8.77999658 40.052,9.464 C40.052,10.2200038 39.9440011,10.8919971 39.728,11.48 C39.511999,12.0680029 39.2210019,12.562998 38.855,12.965 C38.4889982,13.367002 38.0660024,13.6759989 37.586,13.892 C37.1059976,14.1080011 36.6080026,14.216 36.092,14.216 C35.683998,14.216 35.2580023,14.1230009 34.814,13.937 C34.3699978,13.7509991 33.9620019,13.4840017 33.59,13.136 L33.536,13.136 L33.626,14.72 L33.626,17.6 L31.844,17.6 Z M35.75,12.74 C36.4580036,12.74 37.0459977,12.4610028 37.514,11.903 C37.9820024,11.3449972 38.216,10.5380053 38.216,9.482 C38.216,8.55799538 38.0360018,7.8260027 37.676,7.286 C37.3159982,6.7459973 36.740004,6.476 35.948,6.476 C35.5879982,6.476 35.210002,6.56899907 34.814,6.755 C34.4179981,6.94100093 34.022002,7.2439979 33.626,7.664 L33.626,11.822 C33.9980019,12.1580017 34.3759981,12.3949993 34.76,12.533 C35.144002,12.6710007 35.4739987,12.74 35.75,12.74 Z M41.4560001,14 L41.4560001,5.198 L42.8600001,5.198 L43.0040001,6.35 L43.0400001,6.35 C43.2440011,5.95399802 43.4989985,5.62700129 43.8050001,5.369 C44.1110016,5.11099871 44.5159976,4.982 45.0200001,4.982 C45.8600043,4.982 46.3999989,5.48599496 46.6400001,6.494 C46.8800013,6.03799772 47.1529985,5.67200138 47.4590001,5.396 C47.7650016,5.11999862 48.1699976,4.982 48.6740001,4.982 C49.2980032,4.982 49.7809984,5.21899763 50.1230001,5.693 C50.4650018,6.16700237 50.6360001,6.84799556 50.6360001,7.736 L50.6360001,14 L48.8900001,14 L48.8900001,7.862 C48.8900001,6.9619955 48.6200028,6.512 48.0800001,6.512 C47.8039987,6.512 47.576001,6.61399898 47.3960001,6.818 C47.2159992,7.02200102 47.0240011,7.32799796 46.8200001,7.736 L46.8200001,14 L45.2720001,14 L45.2720001,7.862 C45.2720001,6.9619955 45.0080027,6.512 44.4800001,6.512 C44.2039987,6.512 43.970001,6.61399898 43.7780001,6.818 C43.5859991,7.02200102 43.394001,7.32799796 43.2020001,7.736 L43.2020001,14 L41.4560001,14 Z M63.5240002,14 L63.5240002,5.198 L65.0000002,5.198 L65.1440002,7.25 L65.1980002,7.25 C65.6540024,6.5299964 66.2089969,5.97200198 66.8630002,5.576 C67.5170034,5.17999802 68.2399962,4.982 69.0320002,4.982 C69.3800019,4.982 69.6859988,5.00899973 69.9500002,5.063 C70.2140015,5.11700027 70.4839988,5.20999934 70.7600002,5.342 L70.3640002,6.872 C70.0639987,6.77599952 69.8060012,6.70400024 69.5900002,6.656 C69.3739991,6.60799976 69.0980018,6.584 68.7620002,6.584 C68.125997,6.584 67.5140031,6.7639982 66.9260002,7.124 C66.3379972,7.4840018 65.7980026,8.10799556 65.3060002,8.996 L65.3060002,14 L63.5240002,14 Z M75.6200002,14.216 C74.575995,14.216 73.8140026,13.913003 73.3340002,13.307 C72.8539978,12.700997 72.6140002,11.8160058 72.6140002,10.652 L72.6140002,5.198 L74.3960002,5.198 L74.3960002,10.418 C74.3960002,11.1980039 74.5339988,11.7709982 74.8100002,12.137 C75.0860016,12.5030018 75.5599968,12.686 76.2320002,12.686 C76.6880025,12.686 77.1049983,12.5750011 77.4830002,12.353 C77.8610021,12.1309989 78.265998,11.7560026 78.6980002,11.228 L78.6980002,5.198 L80.4800002,5.198 L80.4800002,14 L79.0220002,14 L78.8780002,12.542 L78.8060002,12.542 C78.373998,13.0460025 77.9030027,13.4509985 77.3930002,13.757 C76.8829976,14.0630015 76.2920036,14.216 75.6200002,14.216 Z M83.1440002,14 L83.1440002,5.198 L84.6020002,5.198 L84.7460002,6.62 L84.8180002,6.62 C85.2620024,6.16399772 85.7419976,5.77700159 86.2580002,5.459 C86.7740028,5.14099841 87.3739968,4.982 88.0580002,4.982 C89.0900054,4.982 89.8459978,5.28799694 90.3260002,5.9 C90.8060026,6.51200306 91.0460002,7.39399424 91.0460002,8.546 L91.0460002,14 L89.2640002,14 L89.2640002,8.78 C89.2640002,8.01199616 89.1260016,7.44500183 88.8500002,7.079 C88.5739988,6.71299817 88.1000036,6.53 87.4280002,6.53 C86.9599979,6.53 86.5400021,6.64699883 86.1680002,6.881 C85.7959984,7.11500117 85.3820025,7.46599766 84.9260002,7.934 L84.9260002,14 L83.1440002,14 Z M104.006,14 L102.206,5.198 L103.97,5.198 L104.87,10.04 C104.954001,10.4600021 105.023,10.870998 105.077,11.273 C105.131001,11.675002 105.188,12.0859979 105.248,12.506 L105.32,12.506 C105.380001,12.0859979 105.449,11.675002 105.527,11.273 C105.605001,10.870998 105.692,10.4600021 105.788,10.04 L106.742,5.918 L108.326,5.918 L109.262,10.04 C109.358001,10.4600021 109.451,10.870998 109.541,11.273 C109.631001,11.675002 109.706,12.0859979 109.766,12.506 L109.838,12.506 C109.910001,12.0859979 109.97,11.675002 110.018,11.273 C110.066001,10.870998 110.126,10.4600021 110.198,10.04 L111.098,5.198 L112.754,5.198 L111.008,14 L108.794,14 L107.93,10.148 C107.858,9.82399838 107.786001,9.44600216 107.714,9.014 C107.642,8.58199784 107.576001,8.0960027 107.516,7.556 L107.444,7.556 C107.384,8.06000252 107.321001,8.52499787 107.255,8.951 C107.189,9.37700213 107.120001,9.77599814 107.048,10.148 L106.202,14 L104.006,14 Z M116.678,14.216 C116.257998,14.216 115.865002,14.1560006 115.499,14.036 C115.132999,13.9159994 114.818002,13.7450011 114.554,13.523 C114.289999,13.3009989 114.083001,13.0340016 113.933,12.722 C113.783,12.4099984 113.708,12.0620019 113.708,11.678 C113.708,11.1859975 113.824999,10.7540019 114.059,10.382 C114.293002,10.0099981 114.658998,9.69200132 115.157,9.428 C115.655003,9.16399868 116.296996,8.94800084 117.083,8.78 C117.869004,8.61199916 118.813995,8.48600042 119.918,8.402 C119.894,7.8619973 119.717002,7.40000192 119.387,7.016 C119.056999,6.63199808 118.502004,6.44 117.722,6.44 C117.181998,6.44 116.657003,6.54199898 116.147,6.746 C115.636998,6.95000102 115.166003,7.17799874 114.734,7.43 L114.068,6.224 C114.308002,6.07999928 114.577999,5.93300075 114.878,5.783 C115.178002,5.63299925 115.498999,5.4980006 115.841,5.378 C116.183002,5.2579994 116.536999,5.16200036 116.903,5.09 C117.269002,5.01799964 117.643998,4.982 118.028,4.982 C119.252006,4.982 120.169997,5.3119967 120.782,5.972 C121.394003,6.6320033 121.7,7.54399418 121.7,8.708 L121.7,14 L120.242,14 L120.098,12.866 L120.044,12.866 C119.575998,13.2260018 119.051003,13.5409986 118.469,13.811 C117.886997,14.0810014 117.290003,14.216 116.678,14.216 Z M117.182,12.794 C117.650003,12.794 118.108998,12.692001 118.559,12.488 C119.009003,12.283999 119.461998,11.9960019 119.918,11.624 L119.918,9.536 C119.053996,9.60800036 118.334003,9.70099943 117.758,9.815 C117.181997,9.92900057 116.723002,10.0729991 116.381,10.247 C116.038999,10.4210009 115.796001,10.6159989 115.652,10.832 C115.508,11.0480011 115.436,11.2879987 115.436,11.552 C115.436,11.9960022 115.606999,12.313999 115.949,12.506 C116.291002,12.698001 116.701998,12.794 117.182,12.794 Z M129.656,14.216 C129.007997,14.216 128.459003,14.1260009 128.009,13.946 C127.558998,13.7659991 127.199002,13.5140016 126.929,13.19 C126.658999,12.8659984 126.464001,12.4790023 126.344,12.029 C126.224,11.5789977 126.164,11.0780028 126.164,10.526 L126.164,6.638 L123.752,6.638 L123.752,5.288 L126.236,5.198 L126.47,2.408 L127.946,2.408 L127.946,5.198 L132.104,5.198 L132.104,6.638 L127.946,6.638 L127.946,10.526 C127.946,11.2820038 128.098999,11.8459981 128.405,12.218 C128.711002,12.5900019 129.265996,12.776 130.07,12.776 C130.454002,12.776 130.807999,12.7430003 131.132,12.677 C131.456002,12.6109997 131.773999,12.5180006 132.086,12.398 L132.446,13.712 C132.049998,13.8440007 131.630003,13.9609995 131.186,14.063 C130.741998,14.1650005 130.232003,14.216 129.656,14.216 Z M139.07,14.216 C138.385997,14.216 137.747003,14.114001 137.153,13.91 C136.558997,13.705999 136.046003,13.406002 135.614,13.01 C135.181998,12.613998 134.843002,12.1310029 134.597,11.561 C134.350999,10.9909972 134.228,10.3400037 134.228,9.608 C134.228,8.87599634 134.359999,8.22200288 134.624,7.646 C134.888002,7.06999712 135.247998,6.58400198 135.704,6.188 C136.160003,5.79199802 136.684997,5.49200102 137.279,5.288 C137.873003,5.08399898 138.505997,4.982 139.178,4.982 C139.898004,4.982 140.527998,5.10499877 141.068,5.351 C141.608003,5.59700123 142.057999,5.89399826 142.418,6.242 L141.554,7.376 C141.205999,7.08799856 140.846002,6.86300081 140.474,6.701 C140.101999,6.53899919 139.700003,6.458 139.268,6.458 C138.799998,6.458 138.368002,6.53299925 137.972,6.683 C137.575998,6.83300075 137.237002,7.04599862 136.955,7.322 C136.672999,7.59800138 136.454001,7.93099805 136.298,8.321 C136.142,8.71100195 136.064,9.13999766 136.064,9.608 C136.064,10.0760023 136.139,10.504998 136.289,10.895 C136.439001,11.2850019 136.654999,11.6179986 136.937,11.894 C137.219002,12.1700014 137.551998,12.3829992 137.936,12.533 C138.320002,12.6830007 138.745998,12.758 139.214,12.758 C139.754003,12.758 140.236998,12.656001 140.663,12.452 C141.089003,12.247999 141.475999,12.0020014 141.824,11.714 L142.598,12.866 C142.093998,13.2980022 141.542003,13.6309988 140.942,13.865 C140.341997,14.0990012 139.718004,14.216 139.07,14.216 Z M144.704,14 L144.704,1.238 L146.486,1.238 L146.486,4.622 L146.378,6.602 L146.432,6.602 C146.852003,6.14599772 147.316998,5.76200156 147.827,5.45 C148.337003,5.13799844 148.933997,4.982 149.618,4.982 C150.650006,4.982 151.405998,5.28799694 151.886,5.9 C152.366003,6.51200306 152.606,7.39399424 152.606,8.546 L152.606,14 L150.824,14 L150.824,8.78 C150.824,8.01199616 150.686002,7.44500183 150.41,7.079 C150.133999,6.71299817 149.660004,6.53 148.988,6.53 C148.519998,6.53 148.100002,6.64699883 147.728,6.881 C147.355999,7.11500117 146.942003,7.46599766 146.486,7.934 L146.486,14 L144.704,14 Z" id="npm-run-watch"></path>
                <path d="M0.44,11.948 L1.25,10.724 C1.7300024,11.0600017 2.24299727,11.3449988 2.789,11.579 C3.33500273,11.8130012 3.93199676,11.93 4.58,11.93 C5.21600318,11.93 5.69899835,11.8040013 6.029,11.552 C6.35900165,11.2999987 6.524,10.9640021 6.524,10.544 C6.524,10.2079983 6.38600138,9.92600114 6.11,9.698 C5.83399862,9.46999886 5.48900207,9.2660009 5.075,9.086 C4.66099793,8.9059991 4.2140024,8.7260009 3.734,8.546 C3.2539976,8.3659991 2.80700207,8.15300123 2.393,7.907 C1.97899793,7.66099877 1.63400138,7.36400174 1.358,7.016 C1.08199862,6.66799826 0.944,6.23000264 0.944,5.702 C0.944,4.93399616 1.21099733,4.30400246 1.745,3.812 C2.27900267,3.31999754 2.98999556,3.02000054 3.878,2.912 L3.878,0.554 L5.12,0.554 L5.12,2.894 C5.76800324,2.9540003 6.31699775,3.11299871 6.767,3.371 C7.21700225,3.62900129 7.6219982,3.9379982 7.982,4.298 L7.064,5.342 C6.85999898,5.18599922 6.66200096,5.04500063 6.47,4.919 C6.27799904,4.79299937 6.08000102,4.68800042 5.876,4.604 C5.67199898,4.51999958 5.45600114,4.45400024 5.228,4.406 C4.99999886,4.35799976 4.74200144,4.334 4.454,4.334 C3.90199724,4.334 3.46700159,4.45099883 3.149,4.685 C2.83099841,4.91900117 2.672,5.2459979 2.672,5.666 C2.672,5.9660015 2.80999862,6.21499901 3.086,6.413 C3.36200138,6.61100099 3.70699793,6.79399916 4.121,6.962 C4.53500207,7.13000084 4.98499757,7.30099913 5.471,7.475 C5.95700243,7.64900087 6.40699793,7.86199874 6.821,8.114 C7.23500207,8.36600126 7.57999862,8.67499817 7.856,9.041 C8.13200138,9.40700183 8.27,9.86599724 8.27,10.418 C8.27,11.1980039 7.98800282,11.8489974 7.424,12.371 C6.85999718,12.8930026 6.09200486,13.2139994 5.12,13.334 L5.12,15.98 L3.878,15.98 L3.878,13.37 C3.22999676,13.3099997 2.60000306,13.1510013 1.988,12.893 C1.37599694,12.6349987 0.8600021,12.3200019 0.44,11.948 Z" id="$" fill-opacity="0.2"></path>
            </g>
        </g>
    </g>
</svg>